# Blender 3.6.1
# www.blender.org
mtllib WBFIN.mtl
o Cube.002
v -101.394096 -34.628036 109.658394
v -101.394096 -3.160601 109.658394
v -101.394096 -34.628067 -109.658394
v -101.394096 -3.160633 -109.658394
v 101.394096 -34.628036 109.658394
v 101.394096 -3.160601 109.658394
v 101.394096 -34.628067 -109.658394
v 101.394096 -3.160633 -109.658394
v -91.254684 -34.628067 -98.692551
v -91.254684 -34.628052 -18.201769
v 91.254684 -34.628067 -98.692551
v 16.829987 -34.628067 -98.692551
v -91.254684 -34.628036 98.692551
v -91.254684 -34.628036 98.692551
v -91.254684 -3.160632 -98.692551
v -50.582153 -3.160632 -98.692551
v 91.254684 -3.160602 98.692551
v 91.254684 -3.160625 -54.704926
v 91.254684 -3.160632 -98.692551
v 91.254684 -3.160602 98.692551
v -16.830044 -34.628036 98.692551
v 91.254684 -34.628052 18.201778
v 91.254684 -34.628067 -98.692551
v 91.254684 -34.628036 98.692551
v -91.254684 -3.160632 -98.692551
v -91.254684 -3.160609 54.704887
v 50.582096 -3.160602 98.692551
v -91.254684 -3.160602 98.692551
vn -1.0000 -0.0000 -0.0000
vn -0.0000 -0.0000 -1.0000
vn 1.0000 -0.0000 -0.0000
vn -0.0000 -0.0000 1.0000
vn -0.0000 -1.0000 -0.0000
vn -0.0000 1.0000 -0.0000
vn -0.0000 -0.0000 -0.0000
vn -0.6346 -0.0890 -0.7677
vt 0.625000 0.000000
vt 0.375000 0.250000
vt 0.375000 0.000000
vt 0.625000 0.250000
vt 0.375000 0.500000
vt 0.625000 0.500000
vt 0.375000 0.750000
vt 0.625000 0.750000
vt 0.375000 1.000000
vt 0.137500 0.737500
vt 0.125000 0.750000
vt 0.137500 0.604252
vt 0.637500 0.737500
vt 0.637500 0.562642
vt 0.625000 1.000000
vt 0.362500 0.645748
vt 0.362500 0.512500
vt 0.862500 0.512500
vt 0.875000 0.500000
vt 0.862500 0.687358
vt 0.476946 0.000000
vt 0.569287 0.055713
vt 0.569287 0.000000
vt 0.476946 0.250000
vt 0.569287 0.305713
vt 0.569287 0.250000
vt 0.569287 0.555713
vt 0.476946 0.500000
vt 0.476946 0.648054
vt 0.569287 0.750000
vt 0.476946 0.750000
vt 0.569287 0.805713
vt 0.476946 0.148054
vt 0.476946 0.398054
vt 0.569287 0.500000
vt 0.476946 0.898054
vt 0.476946 1.000000
vt 0.569287 1.000000
vt 0.125000 0.500000
vt 0.270748 0.512500
vt 0.137500 0.512500
vt 0.812358 0.512500
vt 0.637500 0.512500
vt 0.229252 0.737500
vt 0.362500 0.737500
vt 0.362500 0.512500
vt 0.875000 0.750000
vt 0.687642 0.737500
vt 0.862500 0.737500
vt 0.862500 0.512500
s 0
f 2/1/1 3/2/1 1/3/1
f 4/4/2 7/5/2 3/2/2
f 8/6/3 5/7/3 7/5/3
f 6/8/4 1/9/4 5/7/4
f 13/10/5 1/11/5 10/12/5
f 17/13/6 6/8/6 18/14/6
f 2/1/1 4/4/1 3/2/1
f 4/4/2 8/6/2 7/5/2
f 8/6/3 6/8/3 5/7/3
f 6/8/4 2/15/4 1/9/4
f 7/5/5 22/16/5 11/17/5
f 15/18/6 4/19/6 26/20/6
f 14/21/3 26/22/3 28/23/3
f 9/24/4 16/25/4 15/26/4
f 18/27/1 23/28/1 22/29/1
f 17/30/2 24/31/2 27/32/2
f 10/33/3 25/26/3 26/22/3
f 12/34/4 11/28/4 19/35/4
f 20/30/1 22/29/1 24/31/1
f 21/36/2 13/37/2 28/38/2
f 3/39/5 7/5/5 11/17/5
f 3/39/5 11/17/5 12/40/5
f 3/39/5 12/40/5 9/41/5
f 3/39/5 9/41/5 10/12/5
f 1/11/5 3/39/5 10/12/5
f 10/12/7 14/10/7 13/10/7
f 8/6/6 4/19/6 15/18/6
f 8/6/6 15/18/6 16/42/6
f 8/6/6 16/42/6 19/43/6
f 8/6/6 19/43/6 18/14/6
f 6/8/6 8/6/6 18/14/6
f 18/14/7 20/13/7 17/13/7
f 5/7/5 1/11/5 13/10/5
f 5/7/5 13/10/5 21/44/5
f 5/7/5 21/44/5 24/45/5
f 5/7/5 24/45/5 22/16/5
f 7/5/5 5/7/5 22/16/5
f 22/16/7 23/46/7 11/17/7
f 2/47/6 6/8/6 17/13/6
f 2/47/6 17/13/6 27/48/6
f 2/47/6 27/48/6 28/49/6
f 2/47/6 28/49/6 26/20/6
f 4/19/6 2/47/6 26/20/6
f 26/20/8 25/50/8 15/18/7
f 14/21/3 10/33/3 26/22/3
f 9/24/4 12/34/4 16/25/4
f 15/26/4 25/26/4 9/24/4
f 18/27/1 19/35/1 23/28/1
f 24/31/2 21/36/2 27/32/2
f 17/30/4 20/30/4 24/31/4
f 10/33/3 9/24/3 25/26/3
f 19/35/4 16/25/4 12/34/4
f 11/28/4 23/28/4 19/35/4
f 20/30/1 18/27/1 22/29/1
f 28/38/2 27/32/2 21/36/2
f 13/37/4 14/37/4 28/38/4
